<svg xmlns="http://www.w3.org/2000/svg" width="178" height="74" viewBox="0 0 178 74">
    <defs>
        <linearGradient id="linear-gradient" x1="1.033" x2="0" y1="1.109" gradientUnits="objectBoundingBox">
            <stop offset="0" stop-color="#00aeff"/>
            <stop offset="1" stop-color="#804bff"/>
        </linearGradient>
        <filter id="Rectangle_81" width="178" height="74" x="0" y="0" filterUnits="userSpaceOnUse">
            <feOffset dy="3"/>
            <feGaussianBlur result="blur" stdDeviation="3"/>
            <feFlood flood-opacity=".122"/>
            <feComposite in2="blur" operator="in"/>
            <feComposite in="SourceGraphic"/>
        </filter>
        <style>
            .cls-3{fill:url(#linear-gradient)}.cls-4,.cls-6{fill:none}.cls-4{stroke:#707070;stroke-width:2px}.cls-5{stroke:none}
        </style>
    </defs>
    <g id="Group_306" transform="translate(-428 -145)">
        <g filter="url(#Rectangle_81)" transform="translate(428 145)">
            <rect id="Rectangle_81-2" width="160" height="56" fill="#fff" rx="4" transform="translate(9 6)"/>
        </g>
        <g id="Group_265" opacity="0.5" transform="translate(466 172.341)">
            <path id="Rectangle_72" d="M7 0h16v14H7a7 7 0 0 1-7-7 7 7 0 0 1 7-7z" class="cls-3" transform="translate(0 -.341)"/>
            <path id="Rectangle_71" d="M0 0H24V14H0z" class="cls-3" transform="translate(26 -.341)"/>
            <g id="Rectangle_69" class="cls-4">
                <path d="M0 0H24V14H0z" class="cls-5" transform="translate(53 -.341)"/>
                <path d="M1 1H23V13H1z" class="cls-6" transform="translate(53 -.341)"/>
            </g>
            <g id="Rectangle_70" class="cls-4">
                <path d="M0 0h16a7 7 0 0 1 7 7 7 7 0 0 1-7 7H0V0z" class="cls-5" transform="translate(80 -.341)"/>
                <path d="M1.182 1H16a6 6 0 0 1 6 6 6 6 0 0 1-6 6H1.182A.182.182 0 0 1 1 12.818V1.182A.182.182 0 0 1 1.182 1z" class="cls-6" transform="translate(80 -.341)"/>
            </g>
        </g>
    </g>
</svg>
