<svg xmlns="http://www.w3.org/2000/svg" xmlns:xlink="http://www.w3.org/1999/xlink" width="164" height="74" viewBox="0 0 164 74">
  <defs>
    <style>
      .cls-1 {
        fill: rgba(255,255,255,0.25);
      }

      .cls-2 {
        fill: #fff;
        stroke: rgba(121,36,109,0.4);
      }

      .cls-3 {
        fill: #79246d;
      }

      .cls-4 {
        clip-path: url(#clip-path);
      }

      .cls-5 {
        fill: #621d58;
        font-size: 19px;
        font-family: Roboto-Regular, Roboto;
      }

      .cls-6 {
        stroke: none;
      }

      .cls-7 {
        fill: none;
      }

      .cls-8 {
        filter: url(#Rectangle_9);
      }
    </style>
    <filter id="Rectangle_9" x="0" y="0" width="164" height="74" filterUnits="userSpaceOnUse">
      <feOffset dy="3" input="SourceAlpha"/>
      <feGaussianBlur stdDeviation="3" result="blur"/>
      <feFlood flood-opacity="0.122"/>
      <feComposite operator="in" in2="blur"/>
      <feComposite in="SourceGraphic"/>
    </filter>
    <clipPath id="clip-path">
      <rect id="Rectangle_4" data-name="Rectangle 4" class="cls-1" width="10.082" height="29.568"/>
    </clipPath>
  </defs>
  <g id="Group_67" data-name="Group 67" transform="translate(-1165.5 -614.5)">
    <g class="cls-8" transform="matrix(1, 0, 0, 1, 1165.5, 614.5)">
      <g id="Rectangle_9-2" data-name="Rectangle 9" class="cls-2" transform="translate(9 6)">
        <rect class="cls-6" width="146" height="56" rx="4"/>
        <rect class="cls-7" x="0.5" y="0.5" width="145" height="55" rx="3.5"/>
      </g>
    </g>
    <g id="Group_15" data-name="Group 15" transform="translate(1193.5 633.5)">
      <g id="Group_11" data-name="Group 11">
        <path id="Path_4" data-name="Path 4" class="cls-3" d="M-5231.367-4682.6a1.8,1.8,0,0,1-1.124-.47l-.521,3.414-5.039-1.277v-1.771s2.989-1.256,3.281-2.9c.161-.694-4.666-1.17-6.479-1.747v-3.091s2.748-.648,6.821-5.047v-5.716s.674.755,1.124.69.58-.531.58-.9.194-7.261,1.527-7.618c.771,0,1.5,3.552,1.549,7.618.008.616.074.9.551.9s1.086-.69,1.086-.69v5.716c0,.426,2.992,3.032,6.809,5.211.055,1.055,0,2.39,0,2.695s-6.494,1.287-6.484,1.979,1.773,2.34,3.215,2.869c.039.936,0,1.888,0,1.888s-4.425.833-4.977,1.091c-.086-.248-.482-3.312-.482-3.312A3.527,3.527,0,0,1-5231.367-4682.6Z" transform="translate(5241.341 4709.127)"/>
        <g id="Mask_Group_3" data-name="Mask Group 3" class="cls-4" transform="translate(0 0)">
          <path id="Path_9" data-name="Path 9" class="cls-1" d="M-5231.439-4682.6a1.781,1.781,0,0,1-1.115-.469l-.517,3.414-5-1.277v-1.771s2.967-1.257,3.258-2.9c.159-.694-4.632-1.171-6.432-1.747v-3.091s2.728-.649,6.771-5.047v-5.717s.669.756,1.115.691.576-.531.576-.9.194-7.261,1.516-7.618c.766,0,1.485,3.552,1.538,7.618.008.616.073.9.546.9s1.08-.691,1.08-.691v5.717c0,.426,2.97,3.032,6.759,5.211.054,1.055,0,2.39,0,2.694s-6.447,1.287-6.438,1.979,1.761,2.339,3.191,2.868c.04.937,0,1.889,0,1.889s-4.392.832-4.94,1.091c-.084-.248-.479-3.312-.479-3.312A3.486,3.486,0,0,1-5231.439-4682.6Z" transform="translate(5241.341 4709.128)"/>
        </g>
      </g>
      <text id="Advance" class="cls-5" transform="translate(33.372 23.092)"><tspan x="0" y="0">Advance</tspan></text>
    </g>
  </g>
</svg>
