<svg xmlns="http://www.w3.org/2000/svg" xmlns:xlink="http://www.w3.org/1999/xlink" width="147" height="74" viewBox="0 0 147 74">
  <defs>
    <style>
      .cls-1, .cls-2 {
        fill: #fff;
      }

      .cls-2 {
        stroke: #707070;
      }

      .cls-3 {
        fill: #707070;
        font-size: 19px;
        font-family: Roboto-Regular, Roboto;
      }

      .cls-4 {
        filter: url(#Rectangle_8);
      }
    </style>
    <filter id="Rectangle_8" x="0" y="0" width="147" height="74" filterUnits="userSpaceOnUse">
      <feOffset dy="3" input="SourceAlpha"/>
      <feGaussianBlur stdDeviation="3" result="blur"/>
      <feFlood flood-opacity="0.122"/>
      <feComposite operator="in" in2="blur"/>
      <feComposite in="SourceGraphic"/>
    </filter>
  </defs>
  <g id="Group_104" data-name="Group 104" transform="translate(4344.5 6803)">
    <g class="cls-4" transform="matrix(1, 0, 0, 1, -4344.5, -6803)">
      <rect id="Rectangle_8-2" data-name="Rectangle 8" class="cls-1" width="129" height="56" rx="4" transform="translate(9 6)"/>
    </g>
    <g id="Group_12" data-name="Group 12" transform="translate(-4314.5 -6784)">
      <path id="Path_5" data-name="Path 5" class="cls-2" d="M-4627.319-4715.3c-1.17.047-2.129,2.459-2.554,5.871s-.862,10.823-1.292,11.943-5.955,4.294-5.9,8.388c.955.052,6.578,0,6.578,0s.091,1.64.611,1.849h1.5l.288-.8h.46v1.979h.54v-1.979h.552v.621h1.892a5.049,5.049,0,0,0,.5-1.671c.643-.035,6.188.047,6.621,0-.5-4.95-5.479-6.675-5.8-8.388s-1.173-9.654-1.528-11.943S-4626.148-4715.348-4627.319-4715.3Z" transform="translate(4637.298 4715.452)"/>
    </g>
    <text id="Expert" class="cls-3" transform="translate(-4282.824 -6760.908)"><tspan x="0" y="0">Expert</tspan></text>
  </g>
</svg>
