<svg xmlns="http://www.w3.org/2000/svg" xmlns:xlink="http://www.w3.org/1999/xlink" width="103" height="14" viewBox="0 0 103 14">
    <defs>
        <linearGradient id="linear-gradient" x1="1.033" x2="0" y1="1.109" gradientUnits="objectBoundingBox">
            <stop offset="0" stop-color="#00aeff"/>
            <stop offset="1" stop-color="#804bff"/>
        </linearGradient>
        <linearGradient id="linear-gradient-4" x1="-.033" x2="1" y1="1.109" xlink:href="#linear-gradient"/>
        <style>
            .cls-1{fill:url(#linear-gradient)}
        </style>
    </defs>
    <g id="Group_286" transform="translate(0 -.159)">
        <path id="Rectangle_61" d="M7 0h16v14H7a7 7 0 0 1-7-7 7 7 0 0 1 7-7z" class="cls-1" transform="translate(0 .159)"/>
        <path id="Rectangle_63" d="M0 0H24V14H0z" class="cls-1" transform="translate(26 .159)"/>
        <path id="Rectangle_64" d="M0 0H24V14H0z" class="cls-1" transform="translate(53 .159)"/>
        <path id="Rectangle_62" fill="url(#linear-gradient-4)" d="M0 0h16a7 7 0 0 1 7 7 7 7 0 0 1-7 7H0V0z" transform="translate(80 .159)"/>
    </g>
</svg>
