<?xml version="1.0" encoding="UTF-8"?>
<svg width="38px" height="40px" viewBox="0 0 38 40" version="1.1" xmlns="http://www.w3.org/2000/svg" xmlns:xlink="http://www.w3.org/1999/xlink">
    <title>E006A552-101C-4F31-A0C2-130382C06FE3</title>
    <g id="Page-1" stroke="none" stroke-width="1" fill="none" fill-rule="evenodd">
        <g id="02-1st-Time-Dashboard" transform="translate(-621.000000, -255.000000)">
            <g id="Add-Learning-Path" transform="translate(621.000000, 255.000000)">
                <path d="M29.375,0.46875 C29.7672477,0.46875 30.0919789,0.757822346 30.1477792,1.1345526 L30.15625,1.25 L30.15625,5 C30.15625,5.43147246 29.8064725,5.78125 29.375,5.78125 C28.9827523,5.78125 28.6580211,5.49217765 28.6022208,5.1154474 L28.59375,5 L28.59375,2.03125 L4.21052632,2.03125 C2.88403993,2.03125 2.14068287,2.91031329 2.04131729,4.52568043 L2.03125,4.77348993 L2.03145256,29.7222653 C3.01710674,28.661755 4.39089484,27.9779143 5.92242231,27.9076305 L6.18421053,27.9016359 L28.59375,27.90125 L28.59375,25 C28.59375,24.6077523 28.8828223,24.2830211 29.2595526,24.2272208 L29.375,24.21875 C29.7672477,24.21875 30.0919789,24.5078223 30.1477792,24.8845526 L30.15625,25 L30.15625,38.75 C30.15625,39.1422477 29.8671777,39.4669789 29.4904474,39.5227792 L29.375,39.53125 L6.18421053,39.53125 C3.02489731,39.53125 0.46875,36.924357 0.46875,33.716443 L0.46875,4.75745897 C0.519657811,2.28506411 1.76786705,0.588913507 3.97085001,0.474877431 L4.21052632,0.46875 L29.375,0.46875 Z M28.59375,29.46375 L6.18421053,29.4641359 C3.97181256,29.4641359 2.15600644,31.2412705 2.03741092,33.4829426 L2.03125,33.716443 C2.03125,35.98982 3.77262638,37.8415461 5.9567415,37.9624686 L6.18421053,37.96875 L28.59375,37.96875 L28.59375,29.46375 Z" id="Shape" fill="#000000" fill-rule="nonzero"></path>
                <path d="M29.375,33.28125 C29.8064725,33.28125 30.15625,33.6310275 30.15625,34.0625 C30.15625,34.4547477 29.8671777,34.7794789 29.4904474,34.8352792 L29.375,34.84375 L5.9375,34.84375 C5.50602754,34.84375 5.15625,34.4939725 5.15625,34.0625 C5.15625,33.6702523 5.44532235,33.3455211 5.8220526,33.2897208 L5.9375,33.28125 L29.375,33.28125 Z" id="Stroke-3" fill="#000000" fill-rule="nonzero"></path>
                <path d="M6.875,0.46875 C7.26724769,0.46875 7.59197892,0.757822346 7.64777924,1.1345526 L7.65625,1.25 L7.65625,28.4375 C7.65625,28.8689725 7.30647246,29.21875 6.875,29.21875 C6.48275231,29.21875 6.15802108,28.9296777 6.10222076,28.5529474 L6.09375,28.4375 L6.09375,1.25 C6.09375,0.818527539 6.44352754,0.46875 6.875,0.46875 Z" id="Stroke-5" fill="#000000" fill-rule="nonzero"></path>
                <g id="Group" transform="translate(20.000000, 6.250000)" fill="#F07200">
                    <rect id="Rectangle-2" x="7.8968254" y="0.634920635" width="2.5" height="15.8730159"></rect>
                    <polygon id="Rectangle-2" transform="translate(9.146825, 8.571429) rotate(-270.000000) translate(-9.146825, -8.571429) " points="7.8968254 0.634920635 10.3968254 0.634920635 10.3968254 16.5079365 7.8968254 16.5079365"></polygon>
                </g>
            </g>
        </g>
    </g>
</svg>