<?xml version="1.0" encoding="UTF-8"?>
<svg width="18px" height="23px" viewBox="0 0 18 23" version="1.1" xmlns="http://www.w3.org/2000/svg" xmlns:xlink="http://www.w3.org/1999/xlink">
    <title>A68FEB60-DA1A-4D2C-AC79-78C5C8C2EC4B</title>
    <g id="Page-1" stroke="none" stroke-width="1" fill="none" fill-rule="evenodd" opacity="0.200000003" stroke-linecap="round" stroke-linejoin="round">
        <g id="02-1st-Time-Dashboard" transform="translate(-723.000000, -23.000000)" stroke="#000000" stroke-width="1.25">
            <g id="Approvals" transform="translate(724.000000, 24.000000)">
                <polyline id="Stroke-1" points="14.2283565 14.0033826 14.2283565 3.46729565 11.1196609 3.46729565"></polyline>
                <polyline id="Stroke-3" points="3.70661739 3.46758261 0.597921739 3.46758261 0.597921739 19.4893217 7.62835652 19.4893217"></polyline>
                <polyline id="Stroke-5" points="5.97931304 2.0328 3.70661739 2.0328 3.70661739 5.26106087 11.1196609 5.26106087 11.1196609 2.0328 8.84887826 2.0328"></polyline>
                <path d="M5.97931304,2.0328 C5.97931304,1.23984348 6.62113913,0.598017391 7.41409565,0.598017391 C8.20609565,0.598017391 8.84887826,1.23984348 8.84887826,2.0328" id="Stroke-7"></path>
                <line x1="2.98922609" y1="10.2828" x2="11.8370522" y2="10.2828" id="Stroke-9"></line>
                <line x1="2.98922609" y1="7.89149565" x2="11.8370522" y2="7.89149565" id="Stroke-11"></line>
                <path d="M15.4240087,16.9784522 C15.4240087,19.3554087 13.4966174,21.2828 11.1196609,21.2828 C8.74270435,21.2828 6.81531304,19.3554087 6.81531304,16.9784522 C6.81531304,14.6014957 8.74270435,12.6741043 11.1196609,12.6741043 C13.4966174,12.6741043 15.4240087,14.6014957 15.4240087,16.9784522 Z" id="Stroke-13"></path>
                <polyline id="Stroke-15" points="9.20661739 17.5164957 10.4022696 18.7121478 12.7935739 15.9621478"></polyline>
            </g>
        </g>
    </g>
</svg>