<?xml version="1.0" encoding="UTF-8"?>
<svg width="92px" height="30px" viewBox="0 0 92 30" version="1.1" xmlns="http://www.w3.org/2000/svg" xmlns:xlink="http://www.w3.org/1999/xlink">
    <title>27B61993-F58D-491E-BB99-B73C4553FDB6</title>
    <defs>
        <polygon id="path-1" points="0 30 91.0526316 30 91.0526316 0 0 0"></polygon>
    </defs>
    <g id="Page-1" stroke="none" stroke-width="1" fill="none" fill-rule="evenodd">
        <g id="Login" transform="translate(-20.000000, -20.000000)">
            <g id="Logo" transform="translate(20.000000, 20.000000)">
                <path d="M35.8198876,16.7910653 L48.4210526,16.7910653 L48.4210526,16.0020282 C48.4210526,13.9482415 47.9401883,12.295219 46.9627108,10.8972284 C45.2922848,8.70811871 42.8123688,7.36842105 40.1350674,7.36842105 C37.9858769,7.36842105 35.9101809,8.29174026 34.3153492,9.94372175 C32.8580573,11.4770354 32.1052632,13.397581 32.1052632,15.5700355 C32.1052632,17.6259041 32.9777484,19.7546389 34.4507891,21.2879526 C36.0760685,22.8951734 38.0152747,23.6842105 40.3608007,23.6842105 C43.8496918,23.6842105 46.6172865,21.7636649 47.9401883,18.3691396 L43.9840818,18.3691396 C43.2344374,19.6338892 41.8348913,20.2896852 40.2400596,20.2896852 C37.6698503,20.3781657 36.0004742,18.980175 35.8198876,16.7910653 M44.4512972,13.8732934 L35.8650342,13.8732934 C36.3910452,11.9537887 38.1507146,10.6879982 40.0153763,10.6879982 C42.3304545,10.6879982 43.8654406,11.8205476 44.4512972,13.8732934" id="Fill-1" fill="#621D58"></path>
                <path d="M53.5473145,8.89199425 L53.5473145,2.63157895 L50,2.63157895 L50,23.2955466 L53.5473145,23.2955466 L53.5473145,22.0250751 C54.9804791,23.1607679 56.533332,23.6842105 58.3492929,23.6842105 C60.3303411,23.6842105 62.0307409,23.0270341 63.4185064,21.8913413 C65.2808981,20.2760872 66.3157895,17.9608202 66.3157895,15.4961473 C66.3157895,13.2258065 65.3985229,10.953376 63.6702646,9.41439206 C62.2371001,8.01018676 60.3757401,7.35301032 58.3358795,7.35301032 C56.4580109,7.30808411 54.9371437,7.75630142 53.5473145,8.89199425 M53.6804162,15.5557007 C53.6804162,12.8810239 55.5871751,10.8781507 58.0985665,10.8781507 C60.6120214,10.8781507 62.5920379,13.0158025 62.5920379,15.4815202 C62.5920379,18.0663445 60.6863107,20.0828914 57.9076842,20.0828914 C55.6759096,20.098472 53.6804162,18.0955988 53.6804162,15.5557007" id="Fill-3" fill="#621D58"></path>
                <mask id="mask-2" fill="white">
                    <use xlink:href="#path-1"></use>
                </mask>
                <g id="Clip-6"></g>
                <path d="M68.9473684,6.07408018 L72.6315789,6.07408018 L72.6315789,2.63157895 L68.9473684,2.63157895 L68.9473684,6.07408018 Z M68.9473684,23.1578947 L72.6315789,23.1578947 L72.6315789,7.67753644 L68.9473684,7.67753644 L68.9473684,23.1578947 Z" id="Fill-5" fill="#621D58" mask="url(#mask-2)"></path>
                <path d="M87.6019335,23.3407971 L91.0526316,23.3407971 L91.0526316,7.7713316 L87.6019335,7.7713316 L87.6019335,9.63766335 C86.5458516,8.10013165 84.9404411,7.36842105 82.6808206,7.36842105 C80.3588943,7.36842105 78.5001072,8.11474499 76.9237726,9.77127099 C75.480357,11.3088027 74.7368421,13.3097859 74.7368421,15.5038739 C74.7368421,20.1759661 78.1875402,23.6842105 82.7535106,23.6842105 C85.1481268,23.6842105 86.7244614,23.0276542 87.5863571,21.4139244 L87.6019335,23.3407971 Z M78.3817263,15.3389519 C78.3817263,12.8014506 80.3734323,10.8766655 82.827239,10.8766655 C85.0889364,10.8766655 87.2011001,12.8766049 87.2011001,15.5487577 C87.2011001,17.9516076 85.1481268,20.012088 82.8874678,20.012088 C80.4336612,20.012088 78.3817263,18.0862591 78.3817263,15.3389519 L78.3817263,15.3389519 Z" id="Fill-7" fill="#621D58" mask="url(#mask-2)"></path>
                <polygon id="Fill-8" fill="#621D58" mask="url(#mask-2)" points="0.135873115 30 9.65639779 30 19.9545348 19.8314044 30.2244519 30 39.8651721 30 24.77594 15.0595958 40 0 30.3592799 0 19.9545348 10.3168077 9.61040997 0 0 0 15.1352199 15.0595958"></polygon>
            </g>
        </g>
    </g>
</svg>