<?xml version="1.0" encoding="UTF-8"?>
<svg width="19px" height="22px" viewBox="0 0 19 22" version="1.1" xmlns="http://www.w3.org/2000/svg" xmlns:xlink="http://www.w3.org/1999/xlink">
    <title>B875FEB7-6899-4468-96D2-B8413096AB2C</title>
    <g id="Page-1" stroke="none" stroke-width="1" fill="none" fill-rule="evenodd">
        <g id="02-1st-Time-Dashboard" transform="translate(-1049.000000, -20.000000)" fill="#000000">
            <path d="M1059,21.7009476 C1059.00048,21.3666638 1058.73523,21.1005723 1058.4009,21.0999993 C1058.06637,21.0994894 1057.80045,21.364498 1057.8,21.6989623 C1057.79952,22.0333966 1058.0648,22.2995783 1058.39898,22.3000006 C1058.73318,22.3004506 1058.99949,22.0350209 1059,21.7009476 Z M1058.35028,38.7045813 L1058.35028,38.7052354 C1057.94501,38.7052354 1057.53929,38.715229 1057.13476,38.7004748 C1056.96563,38.6942969 1056.88956,38.7481897 1056.8288,38.874836 C1056.53802,39.4810299 1056.75215,40.2079829 1057.34443,40.6011858 C1057.95643,41.0075076 1058.80184,40.9986042 1059.3894,40.579636 C1059.9741,40.1627391 1060.16089,39.4469062 1059.85369,38.8421296 C1059.79558,38.7276574 1059.72162,38.6987668 1059.58657,38.7015287 C1059.17468,38.7099596 1058.76242,38.7045813 1058.35028,38.7045813 L1058.35028,38.7045813 Z M1058.33439,37.5894123 C1058.33556,37.5526155 1058.33678,37.6261213 1058.338,37.5894123 C1059.17681,37.5894123 1060.01641,37.6127885 1060.85422,37.5838423 C1062.0609,37.5420457 1063.26933,37.4667855 1064.44899,37.1903052 C1064.97193,37.0677223 1065.48138,36.868695 1065.97821,36.6591419 C1066.17896,36.5744084 1066.35722,36.3906876 1066.49575,36.2124928 C1066.66326,35.996975 1066.62376,35.8647872 1066.41417,35.693215 C1066.27956,35.5830439 1066.13911,35.479934 1065.99892,35.3768679 C1065.44614,34.9706996 1064.9453,34.5119019 1064.55207,33.9418367 C1063.69167,32.6943858 1063.34912,31.2727752 1063.2112,29.7922194 C1063.13493,28.9729973 1063.14189,28.1461001 1063.07528,27.32565 C1062.90872,25.2747658 1061.49528,23.6953544 1059.49734,23.3048873 C1059.42255,23.2902388 1059.32405,23.3094924 1059.25869,23.3496224 C1058.65074,23.7228972 1058.04605,23.721713 1057.43257,23.3639201 C1057.36617,23.3251935 1057.26863,23.3054575 1057.19449,23.3208516 C1055.8125,23.6074631 1054.75232,24.3420394 1054.09807,25.6221644 C1053.73372,26.3351627 1053.57796,27.1033342 1053.57243,27.9009343 C1053.5653,28.938218 1053.50891,29.9705458 1053.30777,30.990067 C1053.0783,32.1535738 1052.68724,33.2479166 1051.95093,34.1949407 C1051.50301,34.7710145 1050.92729,35.199024 1050.35384,35.6321648 C1050.03322,35.8743483 1050.01142,36.1051725 1050.31642,36.3734953 C1050.51439,36.5477428 1050.74882,36.6933511 1050.98877,36.8033467 C1051.80801,37.1788583 1052.68807,37.3375801 1053.57357,37.4074019 C1055.15839,37.532397 1056.6994,37.6 1058.33439,37.5894123 L1058.33439,37.5894123 Z M1058.61934,20 C1058.75168,20.0430041 1058.88705,20.0785177 1059.01582,20.13029 C1059.85306,20.4666999 1060.29974,21.3519404 1060.07075,22.2141366 C1060.05581,22.2704473 1060.03979,22.3265376 1060.01998,22.3984901 C1060.19118,22.4544924 1060.36078,22.5017704 1060.52422,22.5646462 C1062.52092,23.3324186 1063.68865,24.783145 1064.03695,26.8511295 C1064.16268,27.5973998 1064.13333,28.3686971 1064.18125,29.12823 C1064.23582,29.9925413 1064.36624,30.8438544 1064.6224,31.6754279 C1064.9905,32.8706413 1065.65354,33.8561218 1066.69603,34.5794802 C1066.79307,34.6468503 1066.88668,34.718979 1066.98328,34.7869219 C1067.30262,35.0115036 1067.56936,35.278076 1067.7,35.6545819 L1067.7,36.0943161 C1067.44893,36.9572173 1066.78477,37.3868615 1065.99073,37.6730852 C1065.08652,37.9990525 1064.14314,38.1504039 1063.19092,38.2446957 C1062.52008,38.3111845 1061.84606,38.3464778 1061.17352,38.3959589 C1061.07103,38.4034494 1060.96867,38.4124379 1060.86163,38.4211181 C1061.24102,39.6948051 1060.92914,40.7420599 1059.85203,41.5208036 C1058.98829,42.1451998 1057.80852,42.1636175 1056.90587,41.5512942 C1055.77893,40.7866942 1055.46236,39.7192152 1055.84162,38.4190472 C1055.39074,38.3913765 1054.94745,38.3699626 1054.5051,38.335859 C1053.27017,38.2407742 1052.0398,38.1121145 1050.85655,37.7209361 C1050.25214,37.521161 1049.68797,37.2518128 1049.30242,36.7173463 C1048.83726,36.0725937 1048.90928,35.4636191 1049.51449,34.9499937 C1049.62109,34.8594913 1049.73308,34.7737475 1049.84998,34.696772 C1051.11931,33.8614092 1051.85557,32.6746556 1052.20953,31.2301419 C1052.47997,30.1266646 1052.56131,29.005034 1052.56622,27.8745469 C1052.56974,27.0603777 1052.71217,26.270927 1053.03896,25.5214402 C1053.71266,23.9762459 1054.87106,22.9601867 1056.49609,22.4612778 C1056.55204,22.4440498 1056.60791,22.4263811 1056.63307,22.4185381 C1056.61951,22.1001494 1056.55646,21.7901765 1056.60358,21.4974316 C1056.72883,20.7185116 1057.21085,20.2359055 1057.98535,20.0401401 C1058.01984,20.0314159 1058.05196,20.013571 1058.0852,20 L1058.61934,20 Z" id="Notification"></path>
        </g>
    </g>
</svg>